<svg width="600" height="410" viewBox="0 0 600 410" fill="none" xmlns="http://www.w3.org/2000/svg">
<g clip-path="url(#clip0_203_1598)">
<rect width="600" height="410" fill="#00BAE3"/>
<g style="mix-blend-mode:screen" opacity="0.4">
<rect x="2495.76" y="-788.701" width="653.465" height="2160.03" transform="rotate(73.0694 2495.76 -788.701)" fill="#035AA6"/>
<rect x="2292.63" y="-354.049" width="653.465" height="2160.03" transform="rotate(73.0694 2292.63 -354.049)" fill="#05C7F2"/>
<rect x="2089.5" y="80.6035" width="939.42" height="2160.03" transform="rotate(73.0694 2089.5 80.6035)" fill="#F2C063"/>
</g>
<g clip-path="url(#clip1_203_1598)">
<path d="M177 205C177 137.069 232.069 82 300 82C367.931 82 423 137.069 423 205C423 272.931 367.931 328 300 328C232.069 328 177 272.931 177 205Z" fill="#1769FF"/>
<path fill-rule="evenodd" clip-rule="evenodd" d="M298.307 184.73C298.307 179.989 297.066 175.925 294.589 172.523C290.462 166.983 283.465 164.145 273.576 164H234.396V243.983H270.93C275.05 243.983 278.86 243.633 282.385 242.91C285.911 242.18 288.958 240.848 291.542 238.892C293.841 237.188 295.754 235.087 297.281 232.599C299.696 228.839 300.899 224.585 300.899 219.844C300.899 215.247 299.842 211.336 297.744 208.124C295.623 204.905 292.506 202.553 288.371 201.062C291.095 199.692 293.154 198.17 294.558 196.511C297.066 193.543 298.307 189.609 298.307 184.73ZM352.977 177.683H318.233V167.729H352.977V177.683ZM322.283 208.558C322.853 204.707 324.25 201.655 326.464 199.402C328.678 197.15 331.809 196.024 335.821 196.024C339.524 196.024 342.617 197.081 345.131 199.205C347.615 201.343 349.019 204.448 349.305 208.558H322.283ZM349.914 186.039C354.103 187.881 357.551 190.803 360.266 194.791C362.743 198.307 364.332 202.386 365.057 207.02C365.481 209.73 365.651 213.657 365.582 218.763H321.897C322.159 224.691 324.226 228.854 328.176 231.236C330.568 232.72 333.445 233.466 336.824 233.466C340.379 233.466 343.288 232.56 345.517 230.757C346.744 229.775 347.823 228.42 348.75 226.685H364.756C364.332 230.186 362.388 233.755 358.947 237.378C353.578 243.123 346.057 246 336.392 246C328.407 246 321.365 243.58 315.278 238.725C309.161 233.877 306.121 225.978 306.121 215.049C306.121 204.798 308.876 196.937 314.376 191.465C319.891 186.009 327.027 183.261 335.813 183.261C341.035 183.261 345.733 184.19 349.914 186.039ZM250.557 230.102V208.771H270.521C273.993 208.801 276.7 209.258 278.629 210.126C282.077 211.686 283.79 214.539 283.79 218.71C283.79 223.626 282.015 226.944 278.459 228.694C276.508 229.63 273.761 230.102 270.244 230.102H250.557ZM250.557 177.889V195.537H270.275C273.784 195.537 276.646 194.875 278.852 193.55C281.043 192.226 282.146 189.882 282.146 186.534C282.146 182.797 280.696 180.339 277.796 179.137C275.281 178.307 272.087 177.889 268.207 177.889H250.557Z" fill="white"/>
</g>
</g>
<defs>
<clipPath id="clip0_203_1598">
<rect width="600" height="410" fill="white"/>
</clipPath>
<clipPath id="clip1_203_1598">
<rect width="246" height="246" fill="white" transform="translate(177 82)"/>
</clipPath>
</defs>
</svg>
