<svg width="85" height="88" viewBox="0 0 85 88" fill="none" xmlns="http://www.w3.org/2000/svg">
<path d="M39.96 87.6C32.36 87.6 25.52 85.76 19.44 82.08C13.36 78.4 8.6 73.24 5.16 66.6C1.72 59.96 0 52.36 0 43.8C0 35.4 1.84 27.88 5.52 21.24C9.28 14.6 14.4 9.4 20.88 5.64C27.44 1.88 34.84 0 43.08 0C50.04 0 56.36 1.36 62.04 4.08C67.8 6.72 72.52 10.48 76.2 15.36C79.96 20.24 82.44 25.92 83.64 32.4H72.24C70.72 25.52 67.36 20.12 62.16 16.2C57.04 12.2 50.76 10.2 43.32 10.2C37.08 10.2 31.48 11.64 26.52 14.52C21.64 17.4 17.84 21.4 15.12 26.52C12.4 31.64 11.04 37.48 11.04 44.04C11.04 50.68 12.4 56.6 15.12 61.8C17.92 66.92 21.8 70.96 26.76 73.92C31.72 76.8 37.36 78.24 43.68 78.24C49.6 78.24 54.92 76.88 59.64 74.16C64.44 71.44 68.16 67.72 70.8 63C73.52 58.2 74.88 52.8 74.88 46.8V45H44.64V42.6H84.24V85.8H74.88V57.48C73.04 66.76 69 74.12 62.76 79.56C56.6 84.92 49 87.6 39.96 87.6Z" fill="#020202"/>
</svg>
